# xmcd
#
# Track frame offsets: 
#        150
#        16560
#        32909
#        64410
#        98712
#
# Disc length: 1753 seconds
#
# Revision: 0
# Processed by: cddbd v1.5.2PL0 Copyright (c) Steve Scherf et al.
# Submitted via: ExactAudioCopy v0.95b4
#
DISCID=3506d705
DTITLE=DJ Steve L - Drop the needle
DYEAR=1900
DGENRE=
TTITLE0=Cub Mix Edit
TTITLE1=Gary D Rocks Da Bass Remix
TTITLE2=Club Mix
TTITLE3=Gary D Rocks Da Bass Remix
TTITLE4=Original Ibiza Mix
EXTD=
EXTT0=
EXTT1=
EXTT2=
EXTT3=
EXTT4=
PLAYORDER=
